<svg width="184" height="72" viewBox="0 0 184 72" fill="none" xmlns="http://www.w3.org/2000/svg">
<path d="M20.3574 57.2904H12.4358V24.7709H0.498047V16.6339H32.2674V24.7709H20.3574V57.2904ZM44.593 18.6753C44.593 19.3935 44.4546 20.0645 44.1774 20.6882C43.9191 21.312 43.5591 21.8601 43.0974 22.3327C42.6356 22.7863 42.0911 23.1549 41.4633 23.4384C40.8537 23.703 40.1983 23.8353 39.4965 23.8353C38.795 23.8353 38.1301 23.703 37.5023 23.4384C36.893 23.1549 36.3575 22.7863 35.8959 22.3327C35.4527 21.8601 35.0927 21.312 34.8156 20.6882C34.5571 20.0645 34.4279 19.3935 34.4279 18.6753C34.4279 17.9759 34.5571 17.3144 34.8156 16.6907C35.0927 16.048 35.4527 15.4999 35.8959 15.0462C36.3575 14.5737 36.893 14.2051 37.5023 13.9405C38.1301 13.657 38.795 13.5153 39.4965 13.5153C40.1983 13.5153 40.8537 13.657 41.4633 13.9405C42.0911 14.2051 42.6356 14.5737 43.0974 15.0462C43.5591 15.4999 43.9191 16.048 44.1774 16.6907C44.4546 17.3144 44.593 17.9759 44.593 18.6753ZM43.2914 57.2904H35.6743V26.9256H43.2914V57.2904ZM75.0053 32.9646L69.4655 38.6633C69.1887 37.8694 68.8101 37.1606 68.3298 36.5369C67.85 35.8943 67.3054 35.3556 66.6958 34.9209C66.1051 34.4861 65.4588 34.1554 64.7569 33.9285C64.0554 33.7017 63.335 33.5883 62.5964 33.5883C61.5625 33.5883 60.5838 33.8057 59.6607 34.2404C58.7558 34.6751 57.9616 35.2894 57.2787 36.0833C56.6138 36.8582 56.0874 37.7844 55.6998 38.8619C55.3122 39.9392 55.1182 41.1299 55.1182 42.4341C55.1182 43.4924 55.3122 44.4849 55.6998 45.4112C56.0874 46.3371 56.6138 47.1501 57.2787 47.8491C57.9616 48.5486 58.7558 49.0968 59.6607 49.4935C60.5838 49.8907 61.5625 50.0889 62.5964 50.0889C63.335 50.0889 64.046 49.9851 64.7293 49.7773C65.4127 49.5694 66.0495 49.2764 66.6406 48.8982C67.2498 48.5014 67.7853 48.0288 68.247 47.4806C68.7269 46.9135 69.1149 46.2899 69.4103 45.6094L74.9497 51.3082C74.2482 52.329 73.4355 53.2457 72.5124 54.0582C71.6074 54.8711 70.6197 55.5609 69.5487 56.128C68.4962 56.6951 67.3791 57.1205 66.1974 57.4039C65.0341 57.7062 63.8338 57.8575 62.5964 57.8575C60.5101 57.8575 58.5436 57.4604 56.697 56.6668C54.869 55.8539 53.2625 54.7484 51.8777 53.3494C50.511 51.9508 49.4309 50.3157 48.6368 48.4445C47.843 46.5733 47.4459 44.5701 47.4459 42.4341C47.4459 40.1091 47.843 37.9356 48.6368 35.9132C49.4309 33.8907 50.511 32.1329 51.8777 30.6397C53.2625 29.1276 54.869 27.9369 56.697 27.0674C58.5436 26.1979 60.5101 25.7632 62.5964 25.7632C63.8338 25.7632 65.0432 25.9239 66.225 26.2452C67.4253 26.5665 68.5609 27.0391 69.6319 27.6628C70.7214 28.2676 71.7182 29.0142 72.6232 29.9026C73.5463 30.791 74.3404 31.8116 75.0053 32.9646ZM86.3337 57.2904H78.7166V14.8478H86.3337V41.6119L97.6065 26.9824H106.304L96.4712 39.6272L106.304 57.2904H97.6065L91.5962 46.2617L86.3337 53.4063V57.2904ZM118.214 18.6753C118.214 19.3935 118.075 20.0645 117.798 20.6882C117.54 21.312 117.18 21.8601 116.718 22.3327C116.257 22.7863 115.712 23.1549 115.084 23.4384C114.475 23.703 113.819 23.8353 113.117 23.8353C112.416 23.8353 111.751 23.703 111.123 23.4384C110.514 23.1549 109.978 22.7863 109.517 22.3327C109.074 21.8601 108.714 21.312 108.436 20.6882C108.178 20.0645 108.049 19.3935 108.049 18.6753C108.049 17.9759 108.178 17.3144 108.436 16.6907C108.714 16.048 109.074 15.4999 109.517 15.0462C109.978 14.5737 110.514 14.2051 111.123 13.9405C111.751 13.657 112.416 13.5153 113.117 13.5153C113.819 13.5153 114.475 13.657 115.084 13.9405C115.712 14.2051 116.257 14.5737 116.718 15.0462C117.18 15.4999 117.54 16.048 117.798 16.6907C118.075 17.3144 118.214 17.9759 118.214 18.6753ZM116.912 57.2904H109.295V26.9256H116.912V57.2904ZM137.575 57.2904C135.747 57.2904 134.029 56.9409 132.423 56.2414C130.816 55.5233 129.404 54.5498 128.185 53.3211C126.985 52.0735 126.034 50.6277 125.332 48.9833C124.649 47.339 124.307 45.5811 124.307 43.7099V34.6941H120.624V26.9824H124.307V14.8478H131.841V26.9824H143.308V34.6941H131.841V43.7099C131.841 44.5228 131.989 45.2881 132.284 46.0066C132.58 46.7057 132.986 47.32 133.503 47.8491C134.02 48.3787 134.629 48.8037 135.331 49.125C136.033 49.4277 136.78 49.5787 137.575 49.5787H143.308V57.2904H137.575ZM170.729 57.2904H145.995L158.487 34.6941H145.995V26.9824H170.729L158.237 49.5787H170.729V57.2904Z" fill="#5F2EEA"/>
<path d="M180.671 33.7728C180.665 33.7694 180.659 33.7674 180.653 33.7644L178.179 32.3016C178.025 32.4812 177.815 32.6006 177.584 32.6395C177.354 32.6784 177.118 32.6343 176.915 32.5148C176.713 32.3951 176.557 32.2074 176.475 31.9835C176.393 31.7597 176.389 31.5135 176.464 31.287L173.973 29.8141C173.906 29.7747 173.827 29.764 173.752 29.7845C173.678 29.8049 173.614 29.8548 173.575 29.9232L166.18 43.0349L166.18 43.0357C166.16 43.0694 166.148 43.1069 166.143 43.1456C166.138 43.1847 166.141 43.2238 166.151 43.2617C166.16 43.2997 166.177 43.3349 166.201 43.3663C166.224 43.3972 166.253 43.4232 166.286 43.4429L168.778 44.9139C168.932 44.7347 169.142 44.6154 169.373 44.5763C169.603 44.5376 169.839 44.5817 170.042 44.701C170.244 44.8206 170.399 45.0079 170.482 45.2313C170.565 45.4547 170.569 45.7005 170.495 45.9269L172.954 47.3789C172.964 47.3867 172.973 47.3948 172.984 47.4014C173.018 47.4211 173.054 47.4335 173.092 47.4389C173.13 47.4439 173.169 47.4412 173.205 47.4312C173.242 47.4211 173.277 47.4037 173.307 47.3797C173.338 47.3561 173.363 47.3263 173.382 47.2922V47.2926L180.778 34.18C180.797 34.1461 180.809 34.1087 180.814 34.0699C180.819 34.031 180.817 33.9916 180.807 33.9538C180.797 33.916 180.78 33.8806 180.757 33.8495C180.733 33.8184 180.704 33.7924 180.671 33.7728ZM178.551 34.7907L172.786 45.0122C172.766 45.0463 172.741 45.0761 172.711 45.0997C172.68 45.1237 172.646 45.1411 172.609 45.1512C172.572 45.1612 172.533 45.1639 172.495 45.1589C172.458 45.1539 172.421 45.1411 172.388 45.1214L168.514 42.8317C168.48 42.8119 168.451 42.786 168.428 42.755C168.405 42.7241 168.388 42.6885 168.378 42.6509C168.368 42.613 168.366 42.5735 168.37 42.5348C168.376 42.4961 168.388 42.4585 168.407 42.4248L174.172 32.2032C174.211 32.1348 174.274 32.0849 174.349 32.0645C174.423 32.044 174.503 32.0547 174.57 32.0941L178.444 34.384C178.477 34.4035 178.506 34.4295 178.53 34.4605C178.553 34.4916 178.57 34.527 178.58 34.5648C178.59 34.6025 178.592 34.6419 178.587 34.6807C178.582 34.7194 178.57 34.7568 178.551 34.7907Z" fill="#5F2EEA"/>
<path d="M175.445 38.3345L174.218 38.1008L174.046 36.9C174.043 36.8822 174.035 36.8657 174.023 36.8528C174.011 36.8399 173.995 36.8312 173.978 36.8278C173.96 36.8245 173.943 36.8266 173.927 36.8341C173.911 36.8415 173.898 36.8538 173.889 36.8693L173.294 37.9245L172.097 37.6967C172.08 37.6935 172.062 37.6957 172.046 37.7032C172.03 37.7107 172.017 37.723 172.008 37.7384C172 37.7539 171.996 37.7717 171.997 37.7895C171.999 37.8073 172.006 37.8241 172.017 37.8378L172.809 38.785L172.213 39.8398C172.204 39.8557 172.2 39.8735 172.202 39.8913C172.204 39.9095 172.211 39.9265 172.222 39.9401C172.234 39.9536 172.249 39.9629 172.266 39.9672C172.283 39.9715 172.301 39.9703 172.317 39.9637L173.419 39.5162L174.231 40.4875C174.242 40.5006 174.257 40.5103 174.274 40.5145C174.291 40.5188 174.309 40.5176 174.325 40.5115C174.341 40.5053 174.355 40.494 174.365 40.4793C174.375 40.4646 174.38 40.4472 174.379 40.4294L174.358 39.1272L175.471 38.4947C175.486 38.4859 175.498 38.4726 175.506 38.4566C175.514 38.4406 175.516 38.4226 175.514 38.405C175.511 38.3875 175.502 38.3713 175.49 38.3588C175.478 38.3461 175.462 38.3377 175.445 38.3345Z" fill="#5F2EEA"/>
</svg>
