<svg width="174" height="28" viewBox="0 0 174 28" fill="none" xmlns="http://www.w3.org/2000/svg">
<g clip-path="url(#clip0_128_56)">
<path d="M11.6523 1.01957C12.4727 1.01957 13.2109 1.1602 13.8672 1.44145C14.5469 1.69926 15.168 1.99223 15.7305 2.32035C16.3164 2.64848 16.8672 2.95316 17.3828 3.23442C17.8984 3.49223 18.4258 3.62113 18.9648 3.62113C19.3867 3.5977 19.8672 3.5391 20.4062 3.44535C20.875 3.3516 21.4141 3.21098 22.0234 3.02348C22.6562 2.81254 23.3594 2.50785 24.1328 2.10942C23.3594 2.85942 22.7266 3.49223 22.2344 4.00785C21.7656 4.50004 21.4023 4.9102 21.1445 5.23832C20.8398 5.61332 20.6172 5.90629 20.4766 6.11723C20.3359 6.37504 20.125 6.76176 19.8438 7.27738C19.5859 7.74613 19.2344 8.37895 18.7891 9.17582C18.3438 9.94926 17.7812 10.9688 17.1016 12.2344C17.1016 10.6172 16.9375 9.36332 16.6094 8.4727C16.3047 7.58207 15.9648 6.90238 15.5898 6.43363C15.1445 5.89457 14.6406 5.55473 14.0781 5.4141C13.5625 5.34379 13.0469 5.43754 12.5312 5.69535C12.0156 5.92973 11.5 6.28129 10.9844 6.75004C10.4922 7.21879 10.0117 7.78129 9.54293 8.43754C9.09762 9.07035 8.68746 9.73832 8.31246 10.4414C7.9609 11.1445 7.66793 11.8594 7.43355 12.5859C7.19918 13.2891 7.04684 13.9453 6.97652 14.5547C6.90621 15.0938 6.89449 15.7266 6.94137 16.4531C6.98824 17.1562 7.09371 17.8828 7.25777 18.6328C7.42184 19.3594 7.63277 20.0742 7.89058 20.7773C8.1484 21.4805 8.4648 22.1133 8.8398 22.6758C9.23824 23.2148 9.68355 23.6602 10.1758 24.0117C10.668 24.3398 11.2305 24.4922 11.8633 24.4688C12.5664 24.4219 13.2578 24.2109 13.9375 23.8359C14.5234 23.5312 15.1211 23.0625 15.7305 22.4297C16.3398 21.7734 16.8672 20.8477 17.3125 19.6523L22.5156 20.6016C21.0156 22.4297 19.5508 23.8008 18.1211 24.7148C16.7148 25.6289 15.4492 26.2734 14.3242 26.6484C13.0117 27.0703 11.7695 27.2695 10.5977 27.2461C9.12105 27.082 7.73824 26.6367 6.44918 25.9102C5.16012 25.1836 4.04684 24.3047 3.10934 23.2734C2.19527 22.2188 1.48043 21.0703 0.964805 19.8281C0.44918 18.5859 0.226523 17.3672 0.296836 16.1719C0.343711 15.375 0.507773 14.4492 0.789023 13.3945C1.07027 12.3164 1.44527 11.2148 1.91402 10.0898C2.40621 8.96488 2.99215 7.86332 3.67184 6.7852C4.35152 5.70707 5.10152 4.74613 5.92184 3.90238C6.74215 3.0352 7.63277 2.34379 8.59371 1.82816C9.57808 1.2891 10.5977 1.01957 11.6523 1.01957ZM23.3672 11.2852L29.8359 11.3555C29.4609 12.7852 29.1797 14.0039 28.9922 15.0117C28.8281 16.0195 28.7227 16.8633 28.6758 17.543C28.582 18.3164 28.5586 18.9727 28.6055 19.5117C28.6758 20.0039 28.793 20.5312 28.957 21.0938C29.0977 21.5625 29.3086 22.1016 29.5898 22.7109C29.8711 23.3203 30.2461 23.9297 30.7148 24.5391C30.4336 24.4453 30.1289 24.375 29.8008 24.3281C29.4727 24.2812 29.168 24.2461 28.8867 24.2227C28.5586 24.1992 28.2305 24.1992 27.9023 24.2227C27.5742 24.2461 27.2109 24.2812 26.8125 24.3281C26.4844 24.375 26.0859 24.4336 25.6172 24.5039C25.1484 24.5742 24.6562 24.668 24.1406 24.7852C24.4922 23.7305 24.7617 22.8164 24.9492 22.043C25.1602 21.2695 25.3125 20.625 25.4062 20.1094C25.5 19.5 25.5586 19.0078 25.582 18.6328C25.582 18.1641 25.582 17.6367 25.582 17.0508C25.582 16.4414 25.582 15.8555 25.582 15.293C25.582 14.7305 25.5703 14.2383 25.5469 13.8164C25.5234 13.3711 25.4766 13.0898 25.4062 12.9727L25.0547 12.6211C24.9141 12.5039 24.7031 12.3398 24.4219 12.1289C24.1641 11.8945 23.8125 11.6133 23.3672 11.2852ZM25.8633 5.87113C26.3555 5.61332 26.8477 5.54301 27.3398 5.6602C27.8555 5.77738 28.2539 6.00004 28.5352 6.32816C28.8164 6.65629 28.9102 7.04301 28.8164 7.48832C28.7461 7.93363 28.3711 8.36723 27.6914 8.7891C27.0117 9.18754 26.4141 9.32816 25.8984 9.21098C25.3828 9.09379 25.0195 8.8477 24.8086 8.4727C24.5977 8.0977 24.5625 7.6641 24.7031 7.17192C24.8438 6.65629 25.2305 6.2227 25.8633 5.87113ZM33.5703 23.1328C33.7344 22.3594 33.8516 21.6797 33.9219 21.0938C34.0156 20.4844 34.0859 19.9805 34.1328 19.582C34.1797 19.1133 34.2031 18.7148 34.2031 18.3867C34.1797 17.9883 34.1562 17.5195 34.1328 16.9805C34.1328 16.418 34.1094 15.8672 34.0625 15.3281C34.0391 14.7656 34.0039 14.2734 33.957 13.8516C33.9102 13.4062 33.8516 13.0898 33.7812 12.9023C33.6875 12.7148 33.5586 12.5156 33.3945 12.3047C33.0664 11.9062 32.5859 11.5195 31.9531 11.1445C32.4922 11.0273 32.9492 10.9336 33.3242 10.8633C33.7227 10.7695 34.0508 10.6875 34.3086 10.6172C34.5898 10.5234 34.8359 10.4414 35.0469 10.3711C35.2344 10.3008 35.457 10.2305 35.7148 10.1602C35.9258 10.1133 36.1836 10.0547 36.4883 9.98442C36.793 9.9141 37.1445 9.83207 37.543 9.73832L37.4375 12.9375C38.1875 12.0469 38.9492 11.3789 39.7227 10.9336C40.4961 10.4883 41.2227 10.1719 41.9023 9.98442C42.6758 9.75004 43.4375 9.63285 44.1875 9.63285C45.125 9.67973 45.9922 9.83207 46.7891 10.0898C47.6094 10.3477 48.3125 10.6523 48.8984 11.0039C49.5078 11.332 50 11.6836 50.375 12.0586C50.75 12.4336 50.9727 12.7617 51.043 13.043C51.3242 13.957 51.3945 14.8008 51.2539 15.5742C51.1133 16.3242 50.9258 17.0625 50.6914 17.7891C50.4805 18.4922 50.293 19.1953 50.1289 19.8984C49.9883 20.6016 50.0469 21.3633 50.3047 22.1836C50.3984 22.3945 50.4922 22.6055 50.5859 22.8164C50.6797 23.0039 50.7969 23.1914 50.9375 23.3789C51.0781 23.5664 51.2422 23.7188 51.4297 23.8359C51.1719 23.8125 50.9141 23.8008 50.6562 23.8008C50.3984 23.7773 50.1641 23.7539 49.9531 23.7305C49.6953 23.707 49.4609 23.6836 49.25 23.6602C49.0156 23.6367 48.6992 23.625 48.3008 23.625C47.6211 23.625 46.5664 23.6602 45.1367 23.7305C45.3477 23.2383 45.5117 22.8281 45.6289 22.5C45.7695 22.1484 45.8867 21.8672 45.9805 21.6562C46.0742 21.3984 46.1445 21.1992 46.1914 21.0586C46.4727 20.3789 46.6367 19.6055 46.6836 18.7383C46.7539 17.8711 46.6953 16.9922 46.5078 16.1016C46.4375 15.7969 46.3203 15.4336 46.1562 15.0117C45.9922 14.5898 45.7695 14.1797 45.4883 13.7812C45.2305 13.3828 44.9141 13.043 44.5391 12.7617C44.1875 12.4805 43.7773 12.3164 43.3086 12.2695C42.8398 12.2227 42.3125 12.3398 41.7266 12.6211C41.1641 12.9023 40.5547 13.418 39.8984 14.168C39.4062 14.8008 39.0195 15.5742 38.7383 16.4883C38.4805 17.2617 38.3047 18.2344 38.2109 19.4062C38.1172 20.5547 38.2578 21.9023 38.6328 23.4492C38.3047 23.4023 38 23.3789 37.7188 23.3789C37.4375 23.3555 37.2031 23.332 37.0156 23.3086C36.7812 23.2852 36.5703 23.2617 36.3828 23.2383C36.1719 23.2383 35.9375 23.2266 35.6797 23.2031C35.4453 23.2031 35.1523 23.2031 34.8008 23.2031C34.4492 23.1797 34.0391 23.1562 33.5703 23.1328ZM63.2148 21.3398C63.8711 21.3398 64.4805 21.2695 65.043 21.1289C65.5117 21.0117 65.957 20.8242 66.3789 20.5664C66.8242 20.2852 67.1172 19.875 67.2578 19.3359C67.7266 19.4297 68.125 19.5117 68.4531 19.582C68.7812 19.6289 69.0625 19.6758 69.2969 19.7227C69.5547 19.793 69.7773 19.8398 69.9648 19.8633C70.1523 19.9102 70.375 19.957 70.6328 20.0039C70.8672 20.0508 71.1484 20.1094 71.4766 20.1797C71.8281 20.2266 72.2383 20.2969 72.707 20.3906C72.3555 20.3438 71.9922 20.3789 71.6172 20.4961C71.2656 20.6133 70.9258 20.7422 70.5977 20.8828C70.2227 21.0469 69.8711 21.2461 69.543 21.4805C69.332 21.6211 69.0859 21.832 68.8047 22.1133C68.5469 22.3945 68.1719 22.6641 67.6797 22.9219C67.1875 23.1797 66.5312 23.4023 65.7109 23.5898C64.9141 23.7539 63.8828 23.8125 62.6172 23.7656C61.0938 23.7188 59.8164 23.4492 58.7852 22.957C57.7539 22.4414 56.9219 21.8203 56.2891 21.0938C55.6562 20.3438 55.1992 19.5352 54.918 18.668C54.6367 17.8008 54.4844 16.9922 54.4609 16.2422C54.4375 15.4922 54.6602 14.707 55.1289 13.8867C55.5977 13.0664 56.2539 12.3164 57.0977 11.6367C57.9648 10.957 59.0078 10.4062 60.2266 9.98442C61.4453 9.5391 62.7812 9.31645 64.2344 9.31645C65.0781 9.31645 65.8516 9.42192 66.5547 9.63285C67.2812 9.82035 67.9375 10.0781 68.5234 10.4062C69.1328 10.7344 69.6602 11.1094 70.1055 11.5312C70.5508 11.9297 70.9258 12.3398 71.2305 12.7617C71.5352 13.207 71.793 13.6758 72.0039 14.168C72.1914 14.5898 72.3438 15.0703 72.4609 15.6094C72.5781 16.1484 72.6133 16.6992 72.5664 17.2617C70.7852 17.3086 69.3438 17.3438 68.2422 17.3672C67.1641 17.3906 66.3203 17.4023 65.7109 17.4023H64.1289H62.9336C62.5117 17.4023 61.9609 17.4141 61.2812 17.4375C60.6016 17.4609 59.7695 17.4961 58.7852 17.543C58.9023 18.4805 59.1953 19.207 59.6641 19.7227C60.1562 20.2148 60.6719 20.5898 61.2109 20.8477C61.8203 21.1289 62.4883 21.293 63.2148 21.3398ZM60.0508 15.0117C60.8008 15.0586 61.4219 15.0938 61.9141 15.1172C62.4297 15.1406 62.8516 15.1641 63.1797 15.1875C63.5312 15.2109 63.8125 15.2227 64.0234 15.2227H64.9023C65.4883 15.2227 66.5781 15.1875 68.1719 15.1172C68.1016 14.0859 67.8789 13.3008 67.5039 12.7617C67.1523 12.2227 66.7773 11.8242 66.3789 11.5664C65.9102 11.2852 65.3945 11.1211 64.832 11.0742C63.3086 11.0977 62.1719 11.4141 61.4219 12.0234C60.6953 12.6328 60.2383 13.6289 60.0508 15.0117ZM87.1289 0.492232C88.3945 0.539107 89.6719 0.773482 90.9609 1.19535C92.2734 1.59379 93.4805 2.25004 94.582 3.1641C95.6836 4.05473 96.6211 5.21488 97.3945 6.64457C98.168 8.05082 98.6484 9.77348 98.8359 11.8125C99 13.4766 98.7891 15.1289 98.2031 16.7695C97.6406 18.3867 96.8555 19.875 95.8477 21.2344C94.8398 22.5938 93.6797 23.7539 92.3672 24.7148C91.0547 25.6523 89.7422 26.2734 88.4297 26.5781C87.6328 26.7656 86.7539 26.7891 85.793 26.6484C84.8555 26.4844 83.8945 26.1914 82.9102 25.7695C81.9492 25.3242 81 24.7617 80.0625 24.082C79.1484 23.4023 78.3164 22.6289 77.5664 21.7617C76.8164 20.8711 76.1836 19.9102 75.668 18.8789C75.1758 17.8477 74.8711 16.7695 74.7539 15.6445C74.6367 14.707 74.625 13.6758 74.7188 12.5508C74.8359 11.4023 75.0586 10.2656 75.3867 9.14066C75.7383 7.99223 76.2188 6.89066 76.8281 5.83598C77.4609 4.75785 78.2578 3.82035 79.2188 3.02348C80.1797 2.20316 81.3047 1.57035 82.5938 1.12504C83.9062 0.656294 85.418 0.445356 87.1289 0.492232ZM80.8359 14.7305C80.5078 17.2383 80.7422 19.2539 81.5391 20.7773C82.3594 22.3008 83.5898 23.2266 85.2305 23.5547C86.0273 23.7188 86.7891 23.5547 87.5156 23.0625C88.2656 22.5469 88.9453 21.8086 89.5547 20.8477C90.1641 19.8867 90.6914 18.7617 91.1367 17.4727C91.582 16.1836 91.9102 14.8359 92.1211 13.4297C92.332 12.0234 92.3438 10.7578 92.1562 9.63285C91.9922 8.48442 91.6992 7.51176 91.2773 6.71488C90.8555 5.89457 90.3398 5.26176 89.7305 4.81645C89.1445 4.37113 88.5352 4.12504 87.9023 4.07816C86.8008 4.00785 85.8398 4.30082 85.0195 4.95707C84.1992 5.58988 83.5078 6.42191 82.9453 7.45316C82.3828 8.48442 81.9258 9.64457 81.5742 10.9336C81.2461 12.2227 81 13.4883 80.8359 14.7305ZM101.727 23.1328C101.891 22.3594 102.008 21.6797 102.078 21.0938C102.172 20.4844 102.242 19.9805 102.289 19.582C102.336 19.1133 102.359 18.7148 102.359 18.3867C102.336 17.9883 102.312 17.5195 102.289 16.9805C102.289 16.418 102.266 15.8672 102.219 15.3281C102.195 14.7656 102.16 14.2734 102.113 13.8516C102.066 13.4062 102.008 13.0898 101.938 12.9023C101.844 12.7148 101.715 12.5156 101.551 12.3047C101.223 11.9062 100.742 11.5195 100.109 11.1445C100.648 11.0273 101.105 10.9336 101.48 10.8633C101.879 10.7695 102.207 10.6875 102.465 10.6172C102.746 10.5234 102.992 10.4414 103.203 10.3711C103.391 10.3008 103.613 10.2305 103.871 10.1602C104.082 10.1133 104.34 10.0547 104.645 9.98442C104.949 9.9141 105.301 9.83207 105.699 9.73832L105.594 12.9375C106.344 12.0469 107.105 11.3789 107.879 10.9336C108.652 10.4883 109.379 10.1719 110.059 9.98442C110.832 9.75004 111.594 9.63285 112.344 9.63285C113.281 9.67973 114.148 9.83207 114.945 10.0898C115.766 10.3477 116.469 10.6523 117.055 11.0039C117.664 11.332 118.156 11.6836 118.531 12.0586C118.906 12.4336 119.129 12.7617 119.199 13.043C119.48 13.957 119.551 14.8008 119.41 15.5742C119.27 16.3242 119.082 17.0625 118.848 17.7891C118.637 18.4922 118.449 19.1953 118.285 19.8984C118.145 20.6016 118.203 21.3633 118.461 22.1836C118.555 22.3945 118.648 22.6055 118.742 22.8164C118.836 23.0039 118.953 23.1914 119.094 23.3789C119.234 23.5664 119.398 23.7188 119.586 23.8359C119.328 23.8125 119.07 23.8008 118.812 23.8008C118.555 23.7773 118.32 23.7539 118.109 23.7305C117.852 23.707 117.617 23.6836 117.406 23.6602C117.172 23.6367 116.855 23.625 116.457 23.625C115.777 23.625 114.723 23.6602 113.293 23.7305C113.504 23.2383 113.668 22.8281 113.785 22.5C113.926 22.1484 114.043 21.8672 114.137 21.6562C114.23 21.3984 114.301 21.1992 114.348 21.0586C114.629 20.3789 114.793 19.6055 114.84 18.7383C114.91 17.8711 114.852 16.9922 114.664 16.1016C114.594 15.7969 114.477 15.4336 114.312 15.0117C114.148 14.5898 113.926 14.1797 113.645 13.7812C113.387 13.3828 113.07 13.043 112.695 12.7617C112.344 12.4805 111.934 12.3164 111.465 12.2695C110.996 12.2227 110.469 12.3398 109.883 12.6211C109.32 12.9023 108.711 13.418 108.055 14.168C107.562 14.8008 107.176 15.5742 106.895 16.4883C106.637 17.2617 106.461 18.2344 106.367 19.4062C106.273 20.5547 106.414 21.9023 106.789 23.4492C106.461 23.4023 106.156 23.3789 105.875 23.3789C105.594 23.3555 105.359 23.332 105.172 23.3086C104.938 23.2852 104.727 23.2617 104.539 23.2383C104.328 23.2383 104.094 23.2266 103.836 23.2031C103.602 23.2031 103.309 23.2031 102.957 23.2031C102.605 23.1797 102.195 23.1562 101.727 23.1328ZM131.371 21.3398C132.027 21.3398 132.637 21.2695 133.199 21.1289C133.668 21.0117 134.113 20.8242 134.535 20.5664C134.98 20.2852 135.273 19.875 135.414 19.3359C135.883 19.4297 136.281 19.5117 136.609 19.582C136.938 19.6289 137.219 19.6758 137.453 19.7227C137.711 19.793 137.934 19.8398 138.121 19.8633C138.309 19.9102 138.531 19.957 138.789 20.0039C139.023 20.0508 139.305 20.1094 139.633 20.1797C139.984 20.2266 140.395 20.2969 140.863 20.3906C140.512 20.3438 140.148 20.3789 139.773 20.4961C139.422 20.6133 139.082 20.7422 138.754 20.8828C138.379 21.0469 138.027 21.2461 137.699 21.4805C137.488 21.6211 137.242 21.832 136.961 22.1133C136.703 22.3945 136.328 22.6641 135.836 22.9219C135.344 23.1797 134.688 23.4023 133.867 23.5898C133.07 23.7539 132.039 23.8125 130.773 23.7656C129.25 23.7188 127.973 23.4492 126.941 22.957C125.91 22.4414 125.078 21.8203 124.445 21.0938C123.812 20.3438 123.355 19.5352 123.074 18.668C122.793 17.8008 122.641 16.9922 122.617 16.2422C122.594 15.4922 122.816 14.707 123.285 13.8867C123.754 13.0664 124.41 12.3164 125.254 11.6367C126.121 10.957 127.164 10.4062 128.383 9.98442C129.602 9.5391 130.938 9.31645 132.391 9.31645C133.234 9.31645 134.008 9.42192 134.711 9.63285C135.438 9.82035 136.094 10.0781 136.68 10.4062C137.289 10.7344 137.816 11.1094 138.262 11.5312C138.707 11.9297 139.082 12.3398 139.387 12.7617C139.691 13.207 139.949 13.6758 140.16 14.168C140.348 14.5898 140.5 15.0703 140.617 15.6094C140.734 16.1484 140.77 16.6992 140.723 17.2617C138.941 17.3086 137.5 17.3438 136.398 17.3672C135.32 17.3906 134.477 17.4023 133.867 17.4023H132.285H131.09C130.668 17.4023 130.117 17.4141 129.438 17.4375C128.758 17.4609 127.926 17.4961 126.941 17.543C127.059 18.4805 127.352 19.207 127.82 19.7227C128.312 20.2148 128.828 20.5898 129.367 20.8477C129.977 21.1289 130.645 21.293 131.371 21.3398ZM128.207 15.0117C128.957 15.0586 129.578 15.0938 130.07 15.1172C130.586 15.1406 131.008 15.1641 131.336 15.1875C131.688 15.2109 131.969 15.2227 132.18 15.2227H133.059C133.645 15.2227 134.734 15.1875 136.328 15.1172C136.258 14.0859 136.035 13.3008 135.66 12.7617C135.309 12.2227 134.934 11.8242 134.535 11.5664C134.066 11.2852 133.551 11.1211 132.988 11.0742C131.465 11.0977 130.328 11.4141 129.578 12.0234C128.852 12.6328 128.395 13.6289 128.207 15.0117ZM143.543 2.21488C143.988 2.54301 144.434 2.7891 144.879 2.95316C145.348 3.09379 145.77 3.18754 146.145 3.23442C146.566 3.30473 146.988 3.31645 147.41 3.26957C147.809 3.2227 148.219 3.08207 148.641 2.8477C149.062 2.61332 149.555 2.36723 150.117 2.10942C150.68 1.8516 151.336 1.62895 152.086 1.44145C152.859 1.23051 153.785 1.12504 154.863 1.12504C155.332 1.12504 155.824 1.21879 156.34 1.40629C156.879 1.59379 157.395 1.83988 157.887 2.14457C158.379 2.42582 158.824 2.74223 159.223 3.09379C159.645 3.44535 159.961 3.79692 160.172 4.14848C160.406 4.50004 160.57 5.07426 160.664 5.87113C160.758 6.64457 160.793 7.48832 160.77 8.40238C160.746 9.31645 160.664 10.2188 160.523 11.1094C160.406 12 160.23 12.7266 159.996 13.2891C159.715 13.7812 159.176 14.4141 158.379 15.1875C157.699 15.8438 156.68 16.6875 155.32 17.7188C153.961 18.75 152.133 19.9805 149.836 21.4102C151.195 21.3867 152.332 21.3516 153.246 21.3047C154.184 21.2344 154.945 21.1641 155.531 21.0938C156.211 21 156.75 20.9062 157.148 20.8125C157.5 20.6719 157.875 20.4727 158.273 20.2148C158.602 19.9805 158.953 19.6758 159.328 19.3008C159.727 18.9258 160.113 18.4336 160.488 17.8242C160.559 19.0898 160.629 20.0859 160.699 20.8125C160.746 21.2344 160.781 21.5977 160.805 21.9023C160.828 22.1836 160.852 22.5117 160.875 22.8867C160.898 23.2148 160.91 23.5898 160.91 24.0117C160.934 24.4336 160.969 24.8789 161.016 25.3477C159.844 25.043 158.777 24.8086 157.816 24.6445C156.855 24.457 156.035 24.3281 155.355 24.2578C154.559 24.1641 153.844 24.1172 153.211 24.1172C152.555 24.1406 151.828 24.1992 151.031 24.293C150.328 24.3867 149.484 24.5273 148.5 24.7148C147.539 24.8789 146.449 25.125 145.23 25.4531C145.137 25.1953 145.055 24.9375 144.984 24.6797C144.914 24.3984 144.855 24.1289 144.809 23.8711C144.738 23.5898 144.68 23.3086 144.633 23.0273C144.586 22.7461 144.539 22.4766 144.492 22.2188C144.445 21.9844 144.41 21.7383 144.387 21.4805C144.363 21.2227 144.34 20.9766 144.316 20.7422C146.191 19.5469 147.715 18.4688 148.887 17.5078C150.059 16.5234 150.984 15.6914 151.664 15.0117C152.438 14.2148 153.023 13.4883 153.422 12.832C153.82 12.0352 154.148 11.1562 154.406 10.1953C154.664 9.23442 154.746 8.34379 154.652 7.52348C154.582 6.70316 154.301 6.0352 153.809 5.51957C153.316 4.98051 152.531 4.74613 151.453 4.81645C150.75 4.86332 150.082 5.10942 149.449 5.55473C148.84 6.00004 148.277 6.5391 147.762 7.17192C147.246 7.80473 146.789 8.48442 146.391 9.21098C145.992 9.9141 145.652 10.582 145.371 11.2148C145.113 11.8477 144.902 12.375 144.738 12.7969C144.598 13.2188 144.527 13.4414 144.527 13.4648C144.504 13.5117 144.469 13.3359 144.422 12.9375C144.398 12.5391 144.363 12.0469 144.316 11.4609C144.293 10.8516 144.258 10.2188 144.211 9.56254C144.164 8.90629 144.117 8.35551 144.07 7.9102C144.047 7.55863 144.012 7.1016 143.965 6.5391C143.895 5.62504 143.754 4.18363 143.543 2.21488ZM164.363 5.20316C165.184 4.94535 165.852 4.73441 166.367 4.57035C166.883 4.38285 167.305 4.23051 167.633 4.11332C168.008 3.9727 168.289 3.84379 168.477 3.7266L169.32 3.30473C169.648 3.14067 170.07 2.92973 170.586 2.67192C171.102 2.39066 171.77 2.0391 172.59 1.61723C172.402 2.50785 172.262 3.3516 172.168 4.14848C172.098 4.92192 172.039 5.61332 171.992 6.2227C171.922 6.92582 171.887 7.57035 171.887 8.15629C171.863 8.64848 171.828 9.30473 171.781 10.125C171.758 10.9453 171.723 11.8359 171.676 12.7969C171.629 13.7578 171.582 14.7422 171.535 15.75C171.488 16.7578 171.453 17.707 171.43 18.5977C171.43 19.4648 171.441 20.2148 171.465 20.8477C171.512 21.4805 171.594 21.9141 171.711 22.1484C171.828 22.4297 171.98 22.6992 172.168 22.957C172.332 23.1914 172.52 23.4609 172.73 23.7656C172.965 24.0469 173.246 24.3281 173.574 24.6094C173.035 24.7266 172.531 24.832 172.062 24.9258C171.594 24.9961 171.184 25.0547 170.832 25.1016C170.41 25.1719 170.035 25.2305 169.707 25.2773C169.355 25.3008 168.875 25.3594 168.266 25.4531C167.75 25.5234 167.094 25.6172 166.297 25.7344C165.5 25.8281 164.516 25.9336 163.344 26.0508C163.953 25.6758 164.434 25.3125 164.785 24.9609C165.16 24.6094 165.441 24.3047 165.629 24.0469C165.84 23.7422 165.969 23.4492 166.016 23.168C166.039 22.9805 166.074 22.4766 166.121 21.6562C166.191 20.8125 166.25 19.8281 166.297 18.7031C166.367 17.5547 166.426 16.3359 166.473 15.0469C166.543 13.7344 166.59 12.5156 166.613 11.3906C166.637 10.2656 166.648 9.30473 166.648 8.50785C166.648 7.71098 166.613 7.23051 166.543 7.06645C166.449 6.90238 166.309 6.71488 166.121 6.50395C165.957 6.31645 165.734 6.11723 165.453 5.90629C165.195 5.69535 164.832 5.46098 164.363 5.20316Z" fill="#394BA7"/>
</g>
<defs>
<clipPath id="clip0_128_56">
<rect width="174" height="28" fill="white"/>
</clipPath>
</defs>
</svg>
