<svg width="122" height="39" viewBox="0 0 122 39" fill="none" xmlns="http://www.w3.org/2000/svg">
<g clip-path="url(#clip0_202_6)">
<path d="M6.50223 3.2641C6.50223 4.2001 6.48393 5.2981 6.44733 6.5581C6.41073 7.7821 6.37413 8.7181 6.33753 9.3661C6.22773 11.2021 6.17283 13.0381 6.17283 14.8741C6.17283 16.2421 6.22773 17.6641 6.33753 19.1401C7.47213 17.5201 8.69823 16.3321 10.0158 15.5761C11.3334 14.8201 12.9255 14.4421 14.7921 14.4421C16.1463 14.4421 17.409 15.0361 18.5802 16.2241C19.7514 17.4121 20.5017 18.7981 20.8311 20.3821C20.9409 21.7861 20.9958 23.4961 20.9958 25.5121C20.9958 26.8081 21.069 28.5001 21.2154 30.5881C21.2886 31.3801 21.4899 32.1181 21.8193 32.8021C22.1853 33.4861 22.6977 33.8281 23.3565 33.8281C23.6859 33.8281 23.9421 33.8101 24.1251 33.7741C24.3447 33.7381 24.546 33.7201 24.729 33.7201C25.2414 33.7201 25.5891 33.8461 25.7721 34.0981C25.9917 34.3501 26.1015 34.7101 26.1015 35.1781C26.1015 36.0421 25.6623 36.6901 24.7839 37.1221C23.9055 37.5541 23.1003 37.7701 22.3683 37.7701C19.7331 37.7701 17.9214 36.6901 16.9332 34.5301C16.3842 33.3061 16.0365 31.7221 15.8901 29.7781C15.7437 27.7981 15.6705 25.4941 15.6705 22.8661C15.6705 20.2741 14.7738 18.9781 12.9804 18.9781C11.9922 18.9781 10.9857 19.5001 9.96093 20.5441C8.97273 21.5521 8.14923 22.9021 7.49043 24.5941C6.83163 26.2501 6.50223 27.9781 6.50223 29.7781L6.55713 35.3941C6.55713 36.1861 6.24603 36.7801 5.62383 37.1761C5.00163 37.5361 4.41603 37.7161 3.86703 37.7161C3.06183 37.7161 2.32983 37.4821 1.67103 37.0141C1.01223 36.5101 0.68283 35.9521 0.68283 35.3401C0.93903 32.6401 1.06713 28.1221 1.06713 21.7861C1.06713 20.6341 0.97563 16.3681 0.79263 8.9881L0.62793 4.0201C0.62793 3.2281 0.99393 2.5441 1.72593 1.9681C2.45793 1.3561 3.28143 1.0501 4.19643 1.0501C5.00163 1.0501 5.58723 1.2301 5.95323 1.5901C6.31923 1.9501 6.50223 2.5081 6.50223 3.2641ZM32.9627 2.8321C34.2437 2.9401 35.36 3.2821 36.3116 3.8581C37.2631 4.3981 37.739 5.2261 37.739 6.3421C37.739 7.1701 37.3363 7.8361 36.5311 8.3401C35.7626 8.8081 34.8293 9.0421 33.7313 9.0421C32.6699 9.0421 31.9379 8.7721 31.5353 8.2321C31.1327 7.6921 30.9314 7.1341 30.9314 6.5581C30.9314 5.4781 31.0412 4.5781 31.2607 3.8581C31.517 3.1381 32.0843 2.7961 32.9627 2.8321ZM37.3546 26.7541V28.3201C37.3546 29.7241 37.3913 31.0561 37.4645 32.3161C37.5742 33.5401 37.7024 34.7821 37.8487 36.0421C37.8121 36.4021 37.5377 36.7801 37.0252 37.1761C36.5129 37.5361 36.0554 37.7161 35.6528 37.7161C34.9574 37.7161 34.2436 37.5901 33.5117 37.3381C32.8162 37.0501 32.3954 36.7081 32.249 36.3121C32.0294 35.1601 31.9196 34.1341 31.9196 33.2341C31.9196 30.2821 31.8281 26.9701 31.6451 23.2981C31.4987 20.0581 31.4254 17.7901 31.4254 16.4941C31.4254 15.8461 31.7549 15.2881 32.4137 14.8201C33.0725 14.3521 33.7679 14.1181 34.4999 14.1181C35.5612 14.1181 36.2933 14.3521 36.6959 14.8201C37.1351 15.2881 37.3546 16.0261 37.3546 17.0341V26.7541ZM56.2813 5.6941C55.1833 5.6941 54.5062 6.5941 54.25 8.3941C53.9938 10.8421 53.8657 12.6961 53.8657 13.9561C54.5977 14.0281 55.3663 14.0641 56.1715 14.0641C56.6839 14.0641 57.3427 14.0281 58.1479 13.9561L59.5753 13.9021C60.3073 13.9021 60.8563 14.0281 61.2223 14.2801C61.5883 14.5321 61.7713 14.9461 61.7713 15.5221C61.7713 16.3141 61.4968 16.9981 60.9478 17.5741C60.4354 18.1141 59.8315 18.3841 59.1361 18.3841C56.5009 18.3841 54.7258 18.5101 53.8108 18.7621C53.8108 20.9581 53.9206 24.0721 54.1402 28.1041L54.25 30.7501L54.4696 34.9621C54.5428 36.0061 54.433 36.7441 54.1402 37.1761C53.884 37.5721 53.3167 37.7701 52.4383 37.7701C50.8279 37.7701 49.7848 36.8161 49.309 34.9081C49.0162 33.5041 48.7783 31.5421 48.5953 29.0221C48.4123 26.5021 48.3208 24.2521 48.3208 22.2721C48.3208 21.2281 48.3757 20.0401 48.4855 18.7081C48.4123 18.6721 48.211 18.6541 47.8816 18.6541C47.5522 18.6541 47.3143 18.6721 47.1679 18.7081C46.0699 18.7801 45.2647 18.8161 44.7523 18.8161C44.4229 18.8161 44.0935 18.6001 43.7641 18.1681C43.4347 17.7001 43.27 17.1421 43.27 16.4941C43.27 16.1341 43.3981 15.8101 43.6543 15.5221C43.9105 15.1981 44.2216 14.9641 44.5876 14.8201C45.1366 14.5321 45.9235 14.3881 46.9483 14.3881L48.5953 14.4421C48.5953 9.3301 49.1809 5.7841 50.3521 3.8041C51.4501 1.9321 53.2618 0.996094 55.7872 0.996094C57.2512 0.996094 58.5871 1.35609 59.7949 2.0761C60.3073 2.4001 60.6916 2.7961 60.9478 3.2641C61.2406 3.7321 61.387 4.1821 61.387 4.6141C61.387 5.1541 61.1674 5.7121 60.7282 6.2881C60.3256 6.8641 59.7034 7.1521 58.8616 7.1521C58.5322 7.1521 58.1113 6.9001 57.5989 6.3961C57.4159 6.2161 57.2146 6.0541 56.995 5.9101C56.7754 5.7661 56.5375 5.6941 56.2813 5.6941ZM72.5779 29.1301C72.5779 30.4981 72.7792 31.5601 73.1818 32.3161C73.621 33.0361 74.17 33.3961 74.8288 33.3961C75.1948 33.3961 75.5425 33.3781 75.8719 33.3421C76.2013 33.2701 76.5307 33.2341 76.8601 33.2341C77.2261 33.2341 77.5372 33.4141 77.7934 33.7741C78.0862 34.1341 78.2326 34.5301 78.2326 34.9621C78.2326 35.8261 77.8117 36.5101 76.9699 37.0141C76.1647 37.4821 75.0667 37.7161 73.6759 37.7161C72.6877 37.7161 71.6812 37.4281 70.6564 36.8521C69.6682 36.2401 68.8447 35.3041 68.1859 34.0441C67.5271 32.7481 67.1977 31.1461 67.1977 29.2381C67.1977 25.1341 67.2709 21.6601 67.4173 18.8161C67.6003 15.4321 67.6918 11.1661 67.6918 6.0181C67.6918 4.3981 67.7833 3.2641 67.9663 2.6161C68.1859 2.1121 68.5336 1.7341 69.0094 1.48209C69.5218 1.1941 70.0525 1.0501 70.6015 1.0501C71.1505 1.0501 71.6263 1.1401 72.0289 1.3201C72.4681 1.5001 72.7609 1.7881 72.9073 2.1841C73.0537 2.6161 73.1452 3.0481 73.1818 3.4801C73.255 3.8761 73.2916 4.4521 73.2916 5.2081C73.2916 6.6841 73.2367 8.1061 73.1269 9.4741C73.0537 11.1301 73.0171 12.3361 73.0171 13.0921C72.7243 19.4281 72.5779 24.7741 72.5779 29.1301ZM85.5395 2.8321C86.8205 2.9401 87.9368 3.2821 88.8884 3.8581C89.84 4.3981 90.3158 5.2261 90.3158 6.3421C90.3158 7.1701 89.9132 7.8361 89.108 8.3401C88.3394 8.8081 87.4061 9.0421 86.3081 9.0421C85.2467 9.0421 84.5147 8.7721 84.1121 8.2321C83.7095 7.6921 83.5082 7.1341 83.5082 6.5581C83.5082 5.4781 83.618 4.5781 83.8376 3.8581C84.0938 3.1381 84.6611 2.7961 85.5395 2.8321ZM89.9315 26.7541V28.3201C89.9315 29.7241 89.9681 31.0561 90.0413 32.3161C90.1511 33.5401 90.2792 34.7821 90.4256 36.0421C90.4256 36.4741 90.1694 36.8701 89.657 37.2301C89.1446 37.5541 88.6688 37.7161 88.2296 37.7161C87.5342 37.7161 86.8205 37.5901 86.0885 37.3381C85.3931 37.0501 84.9722 36.7081 84.8258 36.3121C84.6062 35.1601 84.4964 34.1341 84.4964 33.2341C84.4964 30.2821 84.4049 26.9701 84.2219 23.2981C84.0755 20.0581 84.0023 17.7901 84.0023 16.4941C84.0023 15.8461 84.3317 15.2881 84.9905 14.8201C85.6493 14.3521 86.3447 14.1181 87.0767 14.1181C88.1381 14.1181 88.8701 14.3521 89.2727 14.8201C89.7119 15.2881 89.9315 16.0261 89.9315 17.0341V26.7541ZM116.105 13.6861C116.837 13.6861 117.404 13.8661 117.807 14.2261C118.246 14.5501 118.466 14.9641 118.466 15.4681C118.466 15.8281 118.392 16.2061 118.246 16.6021C118.136 16.9621 118.008 17.3401 117.862 17.7361C117.02 19.6801 115.245 22.3981 112.536 25.8901C115.318 29.4181 117.569 31.6861 119.289 32.6941C119.435 32.7661 119.71 32.8921 120.113 33.0721C120.515 33.2521 120.826 33.4681 121.046 33.7201C121.302 33.9721 121.43 34.2601 121.43 34.5841C121.43 35.3761 121.119 36.0241 120.497 36.5281C119.911 36.9961 119.198 37.2301 118.356 37.2301C116.928 37.2301 115.373 36.4561 113.689 34.9081C112.006 33.3241 110.578 31.6681 109.407 29.9401C108.565 31.2001 107.595 32.4601 106.497 33.7201C105.436 34.9441 104.448 35.9881 103.533 36.8521C103.167 37.2481 102.728 37.5541 102.215 37.7701C101.739 37.9861 101.264 38.0941 100.788 38.0941C100.129 38.0941 99.5434 37.9501 99.031 37.6621C98.5186 37.3741 98.2624 36.8701 98.2624 36.1501C98.2624 35.9701 98.3905 35.6821 98.6467 35.2861C98.9029 34.8541 99.0493 34.6021 99.0859 34.5301C99.5251 33.7741 100.111 33.0001 100.843 32.2081C101.575 31.3801 102.032 30.8581 102.215 30.6421C102.654 30.1021 103.13 29.5801 103.643 29.0761C103.935 28.7521 104.375 28.2481 104.96 27.5641C105.546 26.8801 105.948 26.3401 106.168 25.9441L104.246 23.3521C103.331 22.3081 102.545 21.4801 101.886 20.8681C101.227 20.2201 100.696 19.8961 100.294 19.8961C99.7081 19.8961 99.1591 20.0581 98.6467 20.3821C98.2075 20.6701 97.7683 20.8141 97.3291 20.8141C96.8533 20.8141 96.4873 20.7061 96.2311 20.4901C95.9749 20.2381 95.8468 19.9681 95.8468 19.6801C95.8468 18.4561 96.3409 17.4121 97.3291 16.5481C98.3173 15.6481 99.5617 15.1981 101.062 15.1981C102.49 15.1981 103.752 15.6841 104.85 16.6561C105.985 17.5921 107.101 18.8521 108.199 20.4361C108.346 20.5801 108.51 20.8141 108.693 21.1381C108.876 21.4621 109.059 21.7321 109.242 21.9481C109.645 21.3721 110.377 20.2561 111.438 18.6001C112.573 16.6201 113.25 15.4861 113.47 15.1981C114.238 14.1901 115.117 13.6861 116.105 13.6861Z" fill="#D00707"/>
</g>
<defs>
<clipPath id="clip0_202_6">
<rect width="122" height="39" fill="white"/>
</clipPath>
</defs>
</svg>
