<svg width="24" height="24" viewBox="0 0 24 24" fill="none" xmlns="http://www.w3.org/2000/svg">
<path d="M8.5096 20H8.4296C6.81796 19.9859 5.22963 19.6136 3.7796 18.91C3.51288 18.7847 3.29326 18.5773 3.15291 18.3182C3.01255 18.0591 2.95883 17.7619 2.9996 17.47C3.04395 17.1762 3.17999 16.9039 3.38831 16.692C3.59663 16.4801 3.86657 16.3394 4.1596 16.29C5.05821 16.1701 5.92269 15.8672 6.6996 15.4C5.35076 14.3454 4.31235 12.9456 3.69442 11.3488C3.07649 9.75206 2.90205 8.01786 3.1896 6.33002C3.22859 6.06267 3.34357 5.81216 3.52085 5.60828C3.69813 5.4044 3.93026 5.25575 4.1896 5.18002C4.44192 5.10078 4.71195 5.09739 4.96617 5.17028C5.22039 5.24317 5.44761 5.38912 5.6196 5.59002C6.20361 6.3558 6.9375 6.99458 7.77651 7.46739C8.61552 7.94019 9.54206 8.2371 10.4996 8.34002C10.5453 7.16187 11.0516 6.04874 11.9096 5.24002C12.338 4.82979 12.8438 4.50893 13.3974 4.29613C13.9511 4.08333 14.5415 3.98284 15.1344 4.00052C15.7273 4.01821 16.3107 4.15371 16.8507 4.39913C17.3907 4.64455 17.8764 4.99499 18.2796 5.43002C18.3846 5.52289 18.5152 5.58207 18.6542 5.5999C18.7933 5.61773 18.9345 5.59339 19.0596 5.53002C19.298 5.41757 19.5635 5.37524 19.8251 5.40796C20.0867 5.44069 20.3336 5.54713 20.5369 5.71487C20.7403 5.8826 20.8918 6.10471 20.9737 6.35528C21.0556 6.60585 21.0646 6.87454 20.9996 7.13002C20.769 8.08014 20.3319 8.96781 19.7196 9.73002C19.5846 12.5748 18.3305 15.2508 16.2305 17.1746C14.1306 19.0985 11.3553 20.1141 8.5096 20ZM8.5096 18H8.5896C9.75227 18.04 10.9113 17.8488 11.9995 17.4375C13.0878 17.0262 14.0835 16.4029 14.929 15.6039C15.7746 14.8049 16.4531 13.8459 16.9253 12.7827C17.3974 11.7195 17.6538 10.5731 17.6796 9.41002C17.6961 9.09127 17.8276 8.7893 18.0496 8.56002C18.2935 8.25127 18.5015 7.91578 18.6696 7.56002C18.3094 7.56071 17.953 7.48535 17.6239 7.33888C17.2948 7.19241 17.0002 6.97812 16.7596 6.71002C16.5282 6.48057 16.2534 6.2996 15.9511 6.17768C15.6489 6.05577 15.3254 5.99537 14.9996 6.00002C14.6705 5.99151 14.343 6.04808 14.0358 6.16649C13.7286 6.2849 13.4478 6.46282 13.2096 6.69002C12.8882 6.99502 12.6525 7.37909 12.5261 7.80379C12.3998 8.22849 12.3872 8.67892 12.4896 9.11002L12.7496 10.25L11.5796 10.33C10.3807 10.4278 9.17487 10.2638 8.04562 9.84938C6.91637 9.43498 5.89069 8.78007 5.0396 7.93002C5.0031 9.24642 5.3324 10.5471 5.9909 11.6876C6.64939 12.828 7.61127 13.7635 8.7696 14.39L9.7196 14.93L9.0896 15.83C8.4083 16.7235 7.47479 17.3923 6.4096 17.75C7.09292 17.9213 7.79517 18.0053 8.4996 18H8.5096Z" fill="#6E7191"/>
</svg>
